<?xml version="1.0" encoding="UTF-8" standalone="no"?>
<svg width="20px" height="20px" viewBox="0 0 46 46" version="1.1" xmlns="http://www.w3.org/2000/svg" xmlns:xlink="http://www.w3.org/1999/xlink">
    <g id="Google-Button" stroke="none" stroke-width="1" fill="none" fill-rule="evenodd">
        <g id="btn_google_light_normal" transform="translate(-15.000000, -15.000000)">
            <g id="logo_googleg_48dp" transform="translate(15.000000, 15.000000)">
                <path d="M22.56,12.25 C22.56,11.47 22.49,10.72 22.36,10 L12,10 L12,14.51 L17.96,14.51 C17.73,15.99 16.92,17.25 15.63,18.06 L15.63,20.82 L19.17,20.82 C21.09,18.9 22.56,15.86 22.56,12.25 Z" id="Shape" fill="#4285F4"></path>
                <path d="M12,23 C14.96,23 17.47,22.15 19.17,20.82 L15.63,18.06 C14.71,18.65 13.53,19 12,19 C9.17,19 6.77,17.15 5.84,14.61 L2.18,14.61 L2.18,17.45 C3.87,20.78 7.68,23 12,23 Z" id="Shape" fill="#34A853"></path>
                <path d="M5.84,14.61 C5.63,13.95 5.5,13.25 5.5,12.5 C5.5,11.75 5.63,11.05 5.84,10.39 L5.84,7.55 L2.18,7.55 C1.43,9.07 1,10.73 1,12.5 C1,14.27 1.43,15.93 2.18,17.45 L5.84,14.61 Z" id="Shape" fill="#FBBC05"></path>
                <path d="M12,5.5 C13.65,5.5 15.13,6.07 16.3,7.2 L19.4,4.1 C17.46,2.31 14.91,1.2 12,1.2 C7.68,1.2 3.87,3.42 2.18,6.75 L5.84,9.59 C6.77,7.05 9.17,5.5 12,5.5 Z" id="Shape" fill="#EA4335"></path>
                <path d="M1.2,1.2 L22.8,1.2 L22.8,22.8 L1.2,22.8 L1.2,1.2 Z" id="Shape" fill="none"></path>
            </g>
        </g>
    </g>
</svg> 